<svg width="32" height="32" viewBox="0 0 32 32" fill="none" xmlns="http://www.w3.org/2000/svg">
<path d="M14.6337 4.00265C14.7117 4.34743 14.6497 4.70909 14.4611 5.00812C14.2726 5.30715 13.9731 5.51908 13.6283 5.59732C11.4112 6.10286 9.4136 7.30375 7.92714 9.02474C6.44068 10.7457 5.54314 12.8967 5.3655 15.1638C5.18787 17.431 5.73943 19.6955 6.93969 21.627C8.13996 23.5585 9.92611 25.0559 12.0375 25.9006C14.1488 26.7453 16.4749 26.8931 18.6762 26.3225C20.8775 25.7518 22.8388 24.4926 24.2739 22.7286C25.709 20.9645 26.5428 18.788 26.6536 16.5166C26.7643 14.2453 26.1463 11.998 24.8897 10.1027C24.7927 9.9568 24.7255 9.79328 24.6918 9.62144C24.6581 9.4496 24.6585 9.2728 24.6931 9.10114C24.763 8.75445 24.9678 8.44972 25.2623 8.25399C25.5569 8.05826 25.9171 7.98756 26.2638 8.05745C26.4355 8.09205 26.5987 8.16013 26.744 8.2578C26.8894 8.35546 27.0141 8.4808 27.111 8.62665C28.564 10.8109 29.3375 13.3766 29.3337 16C29.3337 23.364 23.3643 29.3333 16.0003 29.3333C8.63633 29.3333 2.66699 23.364 2.66699 16C2.66699 9.65332 7.10033 4.34399 13.039 2.99732C13.3838 2.91927 13.7454 2.98132 14.0445 3.16985C14.3435 3.35837 14.5554 3.65792 14.6337 4.00265ZM17.3337 4.01865C17.3335 3.81864 17.3779 3.6211 17.4636 3.44039C17.5493 3.25968 17.6742 3.10033 17.8293 2.97393C17.9843 2.84752 18.1655 2.75723 18.3597 2.70961C18.554 2.662 18.7564 2.65825 18.9523 2.69865L19.1057 2.73999L23.0883 4.06799C23.4119 4.17492 23.6822 4.40167 23.8438 4.70167C24.0054 5.00168 24.046 5.35218 23.9573 5.68118C23.8685 6.01019 23.6572 6.29273 23.3667 6.4708C23.0761 6.64886 22.7284 6.70892 22.395 6.63865L22.2457 6.59865L20.0003 5.84932V16C19.9999 16.8377 19.7366 17.6541 19.2474 18.3341C18.7582 19.014 18.0678 19.5233 17.2738 19.79C16.4797 20.0567 15.6219 20.0673 14.8214 19.8204C14.021 19.5735 13.3182 19.0816 12.8123 18.414C12.3064 17.7463 12.0228 16.9367 12.0016 16.0993C11.9804 15.2619 12.2227 14.439 12.6942 13.7466C13.1657 13.0542 13.8426 12.5273 14.6296 12.2403C15.4165 11.9532 16.2738 11.9205 17.0803 12.1467L17.3337 12.2267V4.01999V4.01865Z" fill="white"/>
</svg>
