<svg width="34" height="34" viewBox="0 0 34 34" fill="none" xmlns="http://www.w3.org/2000/svg">
<path d="M17.0493 2.54285C10.4469 2.54285 5.0811 6.82115 5.0811 12.0855V16.6819C5.0811 17.6521 4.56247 19.1312 3.94412 19.9583L1.65021 22.996C0.233968 24.8727 1.21137 26.9562 3.80449 27.656C12.4017 29.9463 21.677 29.9463 30.2742 27.656C32.6878 27.0198 33.745 24.7455 32.4285 22.996L30.1346 19.9583C29.5362 19.1312 29.0175 17.6521 29.0175 16.6819V12.0855C29.0175 6.83706 23.6318 2.54285 17.0493 2.54285Z" stroke="white" stroke-width="1.5" stroke-miterlimit="10" stroke-linecap="round"/>
<path d="M20.7388 3.00396C18.3266 2.4562 15.7706 2.4562 13.3584 3.00396C13.9369 1.82703 15.373 1 17.0486 1C18.7242 1 20.1603 1.82703 20.7388 3.00396Z" stroke="white" stroke-width="1.5" stroke-miterlimit="10" stroke-linecap="round" stroke-linejoin="round"/>
<path d="M23.0327 28.2286C23.0327 30.8529 20.3398 33 17.0486 33C15.4129 33 13.8969 32.4592 12.8198 31.6004C11.6991 30.7055 11.068 29.4933 11.0645 28.2286" stroke="white" stroke-width="1.5" stroke-miterlimit="10"/>
</svg>
