<svg width="32" height="32" viewBox="0 0 32 32" fill="none" xmlns="http://www.w3.org/2000/svg">
<path d="M16 0C7.14667 0 0 7.14667 0 16C0 24.8533 7.14667 32 16 32C24.8533 32 32 24.8533 32 16C32 7.14667 24.8533 0 16 0Z" fill="white"/>
<path d="M16.2363 4C13.7461 4 11.9004 4.76172 10.7285 5.93359C9.55664 7.10547 9.14648 8.57031 9 9.68359L11.9297 10.0645C12.0469 9.33203 12.2812 8.59961 12.8379 8.04297C13.3945 7.48633 14.2734 6.92969 16.2363 6.92969C18.1699 6.92969 19.2246 7.39844 19.8105 7.92578C20.3965 8.45312 20.6309 9.09766 20.6309 9.85938C20.6309 12.291 19.6348 12.9648 18.1699 14.2539C16.7051 15.543 14.7715 17.418 14.7715 20.8457V21.5781H17.7012V20.8457C17.7012 18.4141 18.6094 17.7402 20.0742 16.4512C21.5391 15.1621 23.5605 13.2871 23.5605 9.85938C23.5605 8.45312 23.0625 6.87109 21.832 5.72852C20.5723 4.58594 18.6973 4 16.2363 4ZM14.7715 24.5078V27.4375H17.7012V24.5078H14.7715Z" fill="black" fill-opacity="0.75"/>
</svg>
