<svg width="32" height="32" viewBox="0 0 32 32" fill="none" xmlns="http://www.w3.org/2000/svg">
<path d="M20.3387 11.6364C21.1343 11.6364 21.8974 11.9812 22.46 12.5949C23.0226 13.2087 23.3387 14.0411 23.3387 14.9091V23.9985C23.3387 26.1207 22.5659 28.1559 21.1904 29.6564C19.8149 31.157 17.9493 32 16.004 32C14.0587 32 12.1931 31.157 10.8176 29.6564C9.44209 28.1559 8.66933 26.1207 8.66933 23.9985V14.9091C8.66933 14.0411 8.9854 13.2087 9.54801 12.5949C10.1106 11.9812 10.8737 11.6364 11.6693 11.6364H20.3387ZM20.3387 13.8182H11.6693C11.4041 13.8182 11.1498 13.9331 10.9622 14.1377C10.7747 14.3423 10.6693 14.6198 10.6693 14.9091V23.9985C10.6693 25.542 11.2314 27.0223 12.2318 28.1137C13.2323 29.205 14.5892 29.8182 16.004 29.8182C17.4188 29.8182 18.7757 29.205 19.7762 28.1137C20.7766 27.0223 21.3387 25.542 21.3387 23.9985V14.9091C21.3387 14.6198 21.2333 14.3423 21.0458 14.1377C20.8582 13.9331 20.6039 13.8182 20.3387 13.8182ZM3 11.6364H8.54133C8.00603 12.2444 7.62987 12.9978 7.452 13.8182H3C2.73478 13.8182 2.48043 13.9331 2.29289 14.1377C2.10536 14.3423 2 14.6198 2 14.9091V22.544C1.99982 23.2738 2.16739 23.992 2.48737 24.633C2.80735 25.2739 3.26954 25.8171 3.83165 26.2128C4.39377 26.6086 5.03786 26.8442 5.70503 26.8983C6.3722 26.9523 7.04114 26.823 7.65067 26.5222C7.828 27.2349 8.08267 27.9127 8.40267 28.5469C7.48916 28.982 6.49069 29.162 5.49743 29.0707C4.50416 28.9794 3.54739 28.6197 2.7135 28.0239C1.87962 27.4282 1.19488 26.6153 0.721137 25.6585C0.247391 24.7018 -0.000448391 23.6314 6.0899e-07 22.544V14.9091C6.0899e-07 14.0411 0.316071 13.2087 0.87868 12.5949C1.44129 11.9812 2.20435 11.6364 3 11.6364ZM29 11.6364C29.7957 11.6364 30.5587 11.9812 31.1213 12.5949C31.6839 13.2087 32 14.0411 32 14.9091V22.5455C32.0004 23.6322 31.7527 24.702 31.2794 25.6583C30.806 26.6145 30.1218 27.4272 29.2886 28.0228C28.4553 28.6185 27.4992 28.9784 26.5066 29.0702C25.5139 29.1619 24.5159 28.9826 23.6027 28.5484L23.6773 28.4C23.9627 27.8095 24.1933 27.1825 24.3587 26.5251C24.9679 26.8241 25.636 26.952 26.3021 26.8969C26.9682 26.8419 27.6111 26.6057 28.1721 26.21C28.733 25.8143 29.1942 25.2716 29.5135 24.6315C29.8328 23.9914 30 23.2742 30 22.5455V14.9091C30 14.62 29.8948 14.3428 29.7076 14.1382C29.5203 13.9337 29.2663 13.8186 29.0013 13.8182H24.5573C24.3791 12.9976 24.0025 12.2442 23.4667 11.6364H29ZM16 0C16.6128 -1.40886e-08 17.2197 0.13168 17.7859 0.387522C18.352 0.643364 18.8665 1.01836 19.2998 1.49109C19.7332 1.96383 20.0769 2.52504 20.3114 3.1427C20.546 3.76036 20.6667 4.42236 20.6667 5.09091C20.6667 5.75946 20.546 6.42146 20.3114 7.03912C20.0769 7.65677 19.7332 8.21799 19.2998 8.69073C18.8665 9.16346 18.352 9.53845 17.7859 9.7943C17.2197 10.0501 16.6128 10.1818 16 10.1818C14.7623 10.1818 13.5753 9.64546 12.7002 8.69073C11.825 7.73599 11.3333 6.4411 11.3333 5.09091C11.3333 3.74072 11.825 2.44582 12.7002 1.49109C13.5753 0.536362 14.7623 2.84532e-08 16 0ZM26.6707 1.45455C27.196 1.45455 27.7161 1.56741 28.2014 1.78671C28.6867 2.006 29.1277 2.32742 29.4991 2.73263C29.8705 3.13783 30.1652 3.61887 30.3662 4.14829C30.5672 4.67771 30.6707 5.24514 30.6707 5.81818C30.6707 6.39122 30.5672 6.95865 30.3662 7.48807C30.1652 8.01749 29.8705 8.49854 29.4991 8.90374C29.1277 9.30894 28.6867 9.63036 28.2014 9.84966C27.7161 10.0689 27.196 10.1818 26.6707 10.1818C25.6098 10.1818 24.5924 9.72208 23.8422 8.90374C23.0921 8.0854 22.6707 6.97549 22.6707 5.81818C22.6707 4.66087 23.0921 3.55097 23.8422 2.73263C24.5924 1.91428 25.6098 1.45455 26.6707 1.45455ZM5.32933 1.45455C5.85462 1.45455 6.37477 1.56741 6.86007 1.78671C7.34537 2.006 7.78633 2.32742 8.15776 2.73263C8.5292 3.13783 8.82383 3.61887 9.02485 4.14829C9.22587 4.67771 9.32933 5.24514 9.32933 5.81818C9.32933 6.39122 9.22587 6.95865 9.02485 7.48807C8.82383 8.01749 8.5292 8.49854 8.15776 8.90374C7.78633 9.30894 7.34537 9.63036 6.86007 9.84966C6.37477 10.0689 5.85462 10.1818 5.32933 10.1818C4.26847 10.1818 3.25105 9.72208 2.50091 8.90374C1.75076 8.0854 1.32933 6.97549 1.32933 5.81818C1.32933 4.66087 1.75076 3.55097 2.50091 2.73263C3.25105 1.91428 4.26847 1.45455 5.32933 1.45455ZM16 2.18182C15.2928 2.18182 14.6145 2.48831 14.1144 3.03387C13.6143 3.57943 13.3333 4.31937 13.3333 5.09091C13.3333 5.86245 13.6143 6.60239 14.1144 7.14795C14.6145 7.69351 15.2928 8 16 8C16.7072 8 17.3855 7.69351 17.8856 7.14795C18.3857 6.60239 18.6667 5.86245 18.6667 5.09091C18.6667 4.31937 18.3857 3.57943 17.8856 3.03387C17.3855 2.48831 16.7072 2.18182 16 2.18182ZM26.6707 3.63636C26.408 3.63636 26.148 3.6928 25.9053 3.80244C25.6626 3.91209 25.4422 4.0728 25.2565 4.2754C25.0707 4.478 24.9234 4.71853 24.8229 4.98324C24.7224 5.24795 24.6707 5.53166 24.6707 5.81818C24.6707 6.1047 24.7224 6.38842 24.8229 6.65313C24.9234 6.91784 25.0707 7.15836 25.2565 7.36096C25.4422 7.56356 25.6626 7.72427 25.9053 7.83392C26.148 7.94357 26.408 8 26.6707 8C27.2011 8 27.7098 7.77013 28.0849 7.36096C28.46 6.95179 28.6707 6.39684 28.6707 5.81818C28.6707 5.23953 28.46 4.68457 28.0849 4.2754C27.7098 3.86623 27.2011 3.63636 26.6707 3.63636ZM5.32933 3.63636C5.06669 3.63636 4.80662 3.6928 4.56397 3.80244C4.32132 3.91209 4.10084 4.0728 3.91512 4.2754C3.7294 4.478 3.58208 4.71853 3.48158 4.98324C3.38107 5.24795 3.32933 5.53166 3.32933 5.81818C3.32933 6.1047 3.38107 6.38842 3.48158 6.65313C3.58208 6.91784 3.7294 7.15836 3.91512 7.36096C4.10084 7.56356 4.32132 7.72427 4.56397 7.83392C4.80662 7.94357 5.06669 8 5.32933 8C5.85977 8 6.36847 7.77013 6.74355 7.36096C7.11862 6.95179 7.32933 6.39684 7.32933 5.81818C7.32933 5.23953 7.11862 4.68457 6.74355 4.2754C6.36847 3.86623 5.85977 3.63636 5.32933 3.63636Z" fill="white"/>
</svg>
