<svg width="32" height="32" viewBox="0 0 32 32" fill="none" xmlns="http://www.w3.org/2000/svg">
<path d="M0.36 0.04C0.12 0.04 0 0.2 0 0.4V23.64C0 23.84 0.16 24 0.36 24H24L32 32V0.36C32 0.12 31.84 0 31.64 0H0.4L0.36 0.04Z" fill="white"/>
<path d="M9 4C6.23333 4 4 6.23333 4 9C4 11.7667 6.23333 14 9 14C11.7667 14 14 11.7667 14 9C14 6.23333 11.7667 4 9 4Z" fill="black" fill-opacity="0.75"/>
<path d="M22 4C19.2333 4 17 6.23333 17 9C17 11.7667 19.2333 14 22 14C24.7667 14 27 11.7667 27 9C27 6.23333 24.7667 4 22 4Z" fill="black" fill-opacity="0.75"/>
</svg>
