<svg width="32" height="32" viewBox="0 0 32 32" fill="none" xmlns="http://www.w3.org/2000/svg">
<path d="M16 0C9.832 0 4.8 4.57455 4.8 10.1818C4.8 13.6873 6.768 16.8 9.7504 18.6371C4.0432 20.8625 0 26.0116 0 32H3.2C3.2 25.5564 8.912 20.3636 16 20.3636C23.088 20.3636 28.8 25.5564 28.8 32H32C32 26.0116 27.9568 20.864 22.2496 18.6356C23.7718 17.7015 25.0189 16.4425 25.8819 14.9687C26.7449 13.495 27.1975 11.8514 27.2 10.1818C27.2 4.57455 22.168 0 16 0ZM16 2.90909C20.4368 2.90909 24 6.14836 24 10.1818C24 14.2153 20.4368 17.4545 16 17.4545C11.5632 17.4545 8 14.2153 8 10.1818C8 6.14836 11.5632 2.90909 16 2.90909Z" fill="white"/>
</svg>
