<svg width="35" height="28" viewBox="0 0 35 28" fill="none" xmlns="http://www.w3.org/2000/svg">
<g filter="url(#filter0_i_1116_1064)">
<path d="M26.25 0V3.48011H24.0625C22.5313 3.48011 21.6125 3.82813 20.65 4.80256L14.4812 10.9972L7.7875 4.80256C6.825 3.89773 5.8625 3.48011 4.375 3.48011H0V6.96023H4.375C4.15625 6.96023 4.41875 7.09943 4.50625 7.06463L11.6375 13.7116L4.375 20.8807H0V24.3608H4.375C5.90625 24.3608 6.825 24.0128 7.7875 23.0384L14.4812 16.3913L21.7437 23.0384C22.7062 23.9432 23.6687 24.3608 25.1562 24.3608H26.25V27.8409L35 22.6207L26.25 17.4006V20.8807H25.2875C25.2438 20.8459 25.0687 20.7415 25.025 20.7763L17.3688 13.6072L24.0625 6.96023H26.25V10.4403L35 5.22017L26.25 0Z" fill="#FF6F08"/>
</g>
<defs>
<filter id="filter0_i_1116_1064" x="0" y="0" width="35" height="31.8408" filterUnits="userSpaceOnUse" color-interpolation-filters="sRGB">
<feFlood flood-opacity="0" result="BackgroundImageFix"/>
<feBlend mode="normal" in="SourceGraphic" in2="BackgroundImageFix" result="shape"/>
<feColorMatrix in="SourceAlpha" type="matrix" values="0 0 0 0 0 0 0 0 0 0 0 0 0 0 0 0 0 0 127 0" result="hardAlpha"/>
<feOffset dy="4"/>
<feGaussianBlur stdDeviation="2"/>
<feComposite in2="hardAlpha" operator="arithmetic" k2="-1" k3="1"/>
<feColorMatrix type="matrix" values="0 0 0 0 0 0 0 0 0 0 0 0 0 0 0 0 0 0 0.25 0"/>
<feBlend mode="normal" in2="shape" result="effect1_innerShadow_1116_1064"/>
</filter>
</defs>
</svg>
