<svg width="35" height="28" viewBox="0 0 35 28" fill="none" xmlns="http://www.w3.org/2000/svg">
<g filter="url(#filter0_i_1116_1074)">
<path d="M14.6125 0L8.75 6.96023H0V20.8807H8.75L14.6125 27.8409H17.5V0H14.6125ZM21.875 3.48011V6.96023C22.6188 6.96023 23.3625 7.02983 24.0625 7.16903C27.825 7.93466 30.625 10.6491 30.625 13.9205C30.625 17.1918 27.8688 19.9063 24.0625 20.6719C23.3625 20.8111 22.6188 20.8807 21.875 20.8807V24.3608C22.9688 24.3608 23.975 24.2216 25.025 24.0476H25.1562C30.8437 22.8991 35 18.7926 35 13.9205C35 9.0483 30.8437 4.94176 25.1562 3.79332C24.15 3.58452 23.0125 3.48011 21.875 3.48011ZM21.875 10.4403V17.4006C22.2688 17.4006 22.6625 17.3658 22.9688 17.2962C24.85 16.9134 26.25 15.5213 26.25 13.9205C26.25 12.3196 24.8937 10.9276 22.9688 10.5447C22.6188 10.4751 22.225 10.4403 21.875 10.4403Z" fill="#FF6F08"/>
</g>
<defs>
<filter id="filter0_i_1116_1074" x="0" y="0" width="35" height="31.8408" filterUnits="userSpaceOnUse" color-interpolation-filters="sRGB">
<feFlood flood-opacity="0" result="BackgroundImageFix"/>
<feBlend mode="normal" in="SourceGraphic" in2="BackgroundImageFix" result="shape"/>
<feColorMatrix in="SourceAlpha" type="matrix" values="0 0 0 0 0 0 0 0 0 0 0 0 0 0 0 0 0 0 127 0" result="hardAlpha"/>
<feOffset dy="4"/>
<feGaussianBlur stdDeviation="2"/>
<feComposite in2="hardAlpha" operator="arithmetic" k2="-1" k3="1"/>
<feColorMatrix type="matrix" values="0 0 0 0 0 0 0 0 0 0 0 0 0 0 0 0 0 0 0.25 0"/>
<feBlend mode="normal" in2="shape" result="effect1_innerShadow_1116_1074"/>
</filter>
</defs>
</svg>
